<svg width="186" height="38" viewBox="0 0 186 38" fill="none" xmlns="http://www.w3.org/2000/svg">
<path d="M10.04 20.7H5.04L4.28 23H0.16L5.3 8.9H9.82L14.94 23H10.8L10.04 20.7ZM9.06 17.7L7.54 13.14L6.04 17.7H9.06ZM31.0377 8.9L26.0777 18.52V23H22.1377V18.52L17.1777 8.9H21.6577L24.1377 14.34L26.6177 8.9H31.0377ZM39.8211 8.9C41.3011 8.9 42.5944 9.2 43.7011 9.8C44.8211 10.3867 45.6811 11.2133 46.2811 12.28C46.8811 13.3467 47.1811 14.5667 47.1811 15.94C47.1811 17.3 46.8744 18.5133 46.2611 19.58C45.6611 20.6467 44.8011 21.4867 43.6811 22.1C42.5744 22.7 41.2878 23 39.8211 23H34.2411V8.9H39.8211ZM39.5211 19.54C40.6678 19.54 41.5678 19.2267 42.2211 18.6C42.8744 17.9733 43.2011 17.0867 43.2011 15.94C43.2011 14.78 42.8744 13.8867 42.2211 13.26C41.5678 12.62 40.6678 12.3 39.5211 12.3H38.1611V19.54H39.5211ZM54.8681 12.04V14.34H59.3681V17.32H54.8681V19.86H59.9681V23H50.9481V8.9H59.9681V12.04H54.8681ZM76.9652 23H73.0452L67.8252 15.12V23H63.9052V8.9H67.8252L73.0452 16.88V8.9H76.9652V23ZM90.1981 15.76C91.0248 15.9467 91.6781 16.36 92.1581 17C92.6515 17.6267 92.8981 18.3467 92.8981 19.16C92.8981 20.36 92.4848 21.3 91.6581 21.98C90.8315 22.66 89.6715 23 88.1781 23H81.1981V8.9H87.9581C89.3981 8.9 90.5248 9.22 91.3381 9.86C92.1648 10.5 92.5781 11.4 92.5781 12.56C92.5781 13.3867 92.3581 14.08 91.9181 14.64C91.4915 15.1867 90.9181 15.56 90.1981 15.76ZM85.1181 14.5H87.0981C88.0848 14.5 88.5781 14.0933 88.5781 13.28C88.5781 12.44 88.0848 12.02 87.0981 12.02H85.1181V14.5ZM87.3981 19.84C88.3848 19.84 88.8781 19.4267 88.8781 18.6C88.8781 18.1733 88.7448 17.8467 88.4781 17.62C88.2248 17.3933 87.8581 17.28 87.3781 17.28H85.1181V19.84H87.3981ZM103.756 23L100.956 17.8H100.536V23H96.6161V8.9H102.796C103.929 8.9 104.889 9.1 105.676 9.5C106.463 9.88667 107.056 10.4267 107.456 11.12C107.856 11.8 108.056 12.5667 108.056 13.42C108.056 14.38 107.789 15.2267 107.256 15.96C106.736 16.68 105.969 17.1933 104.956 17.5L108.136 23H103.756ZM100.536 15.12H102.476C103.009 15.12 103.409 14.9933 103.676 14.74C103.943 14.4867 104.076 14.12 104.076 13.64C104.076 13.1867 103.936 12.8333 103.656 12.58C103.389 12.3133 102.996 12.18 102.476 12.18H100.536V15.12ZM120.759 20.7H115.759L114.999 23H110.879L116.019 8.9H120.539L125.659 23H121.519L120.759 20.7ZM119.779 17.7L118.259 13.14L116.759 17.7H119.779ZM141.996 23H138.076L132.856 15.12V23H128.936V8.9H132.856L138.076 16.88V8.9H141.996V23ZM151.809 8.9C153.289 8.9 154.583 9.2 155.689 9.8C156.809 10.3867 157.669 11.2133 158.269 12.28C158.869 13.3467 159.169 14.5667 159.169 15.94C159.169 17.3 158.863 18.5133 158.249 19.58C157.649 20.6467 156.789 21.4867 155.669 22.1C154.563 22.7 153.276 23 151.809 23H146.229V8.9H151.809ZM151.509 19.54C152.656 19.54 153.556 19.2267 154.209 18.6C154.863 17.9733 155.189 17.0867 155.189 15.94C155.189 14.78 154.863 13.8867 154.209 13.26C153.556 12.62 152.656 12.3 151.509 12.3H150.149V19.54H151.509ZM168.256 23.14C166.616 23.14 165.27 22.7533 164.216 21.98C163.163 21.1933 162.596 20.0733 162.516 18.62H166.696C166.736 19.1133 166.883 19.4733 167.136 19.7C167.39 19.9267 167.716 20.04 168.116 20.04C168.476 20.04 168.77 19.9533 168.996 19.78C169.236 19.5933 169.356 19.34 169.356 19.02C169.356 18.6067 169.163 18.2867 168.776 18.06C168.39 17.8333 167.763 17.58 166.896 17.3C165.976 16.9933 165.23 16.7 164.656 16.42C164.096 16.1267 163.603 15.7067 163.176 15.16C162.763 14.6 162.556 13.8733 162.556 12.98C162.556 12.0733 162.783 11.3 163.236 10.66C163.69 10.0067 164.316 9.51333 165.116 9.18C165.916 8.84667 166.823 8.68 167.836 8.68C169.476 8.68 170.783 9.06667 171.756 9.84C172.743 10.6 173.27 11.6733 173.336 13.06H169.076C169.063 12.6333 168.93 12.3133 168.676 12.1C168.436 11.8867 168.123 11.78 167.736 11.78C167.443 11.78 167.203 11.8667 167.016 12.04C166.83 12.2133 166.736 12.46 166.736 12.78C166.736 13.0467 166.836 13.28 167.036 13.48C167.25 13.6667 167.51 13.8333 167.816 13.98C168.123 14.1133 168.576 14.2867 169.176 14.5C170.07 14.8067 170.803 15.1133 171.376 15.42C171.963 15.7133 172.463 16.1333 172.876 16.68C173.303 17.2133 173.516 17.8933 173.516 18.72C173.516 19.56 173.303 20.3133 172.876 20.98C172.463 21.6467 171.856 22.1733 171.056 22.56C170.27 22.9467 169.336 23.14 168.256 23.14Z" fill="#D0CCC6"/>
<path d="M141.066 27.745L138.717 34H137.529L135.171 27.745H136.269L138.123 32.947L139.986 27.745H141.066ZM143.85 27.745V34H142.824V27.745H143.85ZM147.123 28.573V30.409H149.283V31.246H147.123V33.163H149.553V34H146.097V27.736H149.553V28.573H147.123ZM155.758 27.745V28.582H154.093V34H153.067V28.582H151.393V27.745H155.758ZM162.836 34H161.81L158.723 29.329V34H157.697V27.736H158.723L161.81 32.398V27.736H162.836V34ZM168.854 32.722H166.235L165.785 34H164.714L166.955 27.736H168.143L170.384 34H169.304L168.854 32.722ZM168.566 31.885L167.549 28.978L166.523 31.885H168.566ZM178.847 27.745V34H177.821V29.716L175.913 34H175.202L173.285 29.716V34H172.259V27.745H173.366L175.562 32.65L177.749 27.745H178.847Z" fill="#D0CCC6"/>
<g clip-path="url(#clip0_60_435)" filter="url(#filter0_d_60_435)">
<path d="M177.833 4.06252C177.59 3.84907 177.275 3.73746 176.952 3.75088C176.629 3.76431 176.323 3.90174 176.099 4.1346C175.875 4.36701 175.75 4.67723 175.75 5.00002C175.75 5.3228 175.875 5.63302 176.099 5.86543C176.323 6.09829 176.629 6.23573 176.952 6.24915C177.275 6.26258 177.59 6.15096 177.833 5.93752M173.25 5C173.25 5.49246 173.347 5.98009 173.535 6.43506C173.724 6.89003 174 7.30343 174.348 7.65165C174.697 7.99987 175.11 8.27609 175.565 8.46455C176.02 8.653 176.508 8.75 177 8.75C177.492 8.75 177.98 8.653 178.435 8.46455C178.89 8.27609 179.303 7.99987 179.652 7.65165C180 7.30343 180.276 6.89003 180.465 6.43506C180.653 5.98009 180.75 5.49246 180.75 5C180.75 4.50754 180.653 4.01991 180.465 3.56494C180.276 3.10997 180 2.69657 179.652 2.34835C179.303 2.00013 178.89 1.72391 178.435 1.53545C177.98 1.347 177.492 1.25 177 1.25C176.508 1.25 176.02 1.347 175.565 1.53545C175.11 1.72391 174.697 2.00013 174.348 2.34835C174 2.69657 173.724 3.10997 173.535 3.56494C173.347 4.01991 173.25 4.50754 173.25 5Z" stroke="#D0CCC6" stroke-linecap="round" stroke-linejoin="round"/>
</g>
<defs>
<filter id="filter0_d_60_435" x="168" y="0" width="18" height="18" filterUnits="userSpaceOnUse" color-interpolation-filters="sRGB">
<feFlood flood-opacity="0" result="BackgroundImageFix"/>
<feColorMatrix in="SourceAlpha" type="matrix" values="0 0 0 0 0 0 0 0 0 0 0 0 0 0 0 0 0 0 127 0" result="hardAlpha"/>
<feOffset dy="4"/>
<feGaussianBlur stdDeviation="2"/>
<feComposite in2="hardAlpha" operator="out"/>
<feColorMatrix type="matrix" values="0 0 0 0 0 0 0 0 0 0 0 0 0 0 0 0 0 0 0.25 0"/>
<feBlend mode="normal" in2="BackgroundImageFix" result="effect1_dropShadow_60_435"/>
<feBlend mode="normal" in="SourceGraphic" in2="effect1_dropShadow_60_435" result="shape"/>
</filter>
<clipPath id="clip0_60_435">
<rect width="10" height="10" fill="white" transform="translate(172)"/>
</clipPath>
</defs>
</svg>
